HIERARCHY
ROOT hip
{
  OFFSET 0 0 0
  CHANNELS 6 Xposition Yposition Zposition Zrotation Yrotation Xrotation
  JOINT abdomen
  {
    OFFSET 0 20.6881 -0.73152
    CHANNELS 3 Zrotation Xrotation Yrotation
    JOINT chest
    {
      OFFSET 0 11.7043 -0.48768
      CHANNELS 3 Zrotation Xrotation Yrotation
      JOINT neck
      {
        OFFSET 0 22.1894 -2.19456
        CHANNELS 3 Zrotation Xrotation Yrotation
        JOINT head
        {
          OFFSET -0.24384 7.07133 1.2192
          CHANNELS 3 Zrotation Xrotation Yrotation
          JOINT leftEye
          {
            OFFSET 4.14528 8.04674 8.04672
            CHANNELS 3 Zrotation Xrotation Yrotation
            End Site
            {
              OFFSET 1 0 0
            }
          }
          JOINT rightEye
          {
            OFFSET -3.6576 8.04674 8.04672
            CHANNELS 3 Zrotation Xrotation Yrotation
            End Site
            {
              OFFSET 1 0 0
            }
          }
        }
      }
      JOINT rCollar
      {
        OFFSET -2.68224 19.2634 -4.8768
        CHANNELS 3 Zrotation Xrotation Yrotation
        JOINT rShldr
        {
          OFFSET -8.77824 -1.95073 1.46304
          CHANNELS 3 Zrotation Xrotation Yrotation
          JOINT rForeArm
          {
            OFFSET -28.1742 -1.7115 0.48768
            CHANNELS 3 Zrotation Xrotation Yrotation
            JOINT rHand
            {
              OFFSET -22.5879 0.773209 7.07136
              CHANNELS 3 Zrotation Xrotation Yrotation
              JOINT rThumb1
              {
                OFFSET -1.2192 -0.487915 3.41376
                CHANNELS 3 Zrotation Xrotation Yrotation
                JOINT rThumb2
                {
                  OFFSET -3.37035 -0.52449 3.41376
                  CHANNELS 3 Zrotation Xrotation Yrotation
                  End Site
                  {
                    OFFSET -1.78271 -1.18214 1.43049
                  }
                }
              }
              JOINT rIndex1
              {
                OFFSET -7.75947 0.938293 5.60832
                CHANNELS 3 Zrotation Xrotation Yrotation
                JOINT rIndex2
                {
                  OFFSET -2.54057 -0.884171 1.56538
                  CHANNELS 3 Zrotation Xrotation Yrotation
                  End Site
                  {
                    OFFSET -1.62519 -0.234802 1.16502
                  }
                }
              }
              JOINT rMid1
              {
                OFFSET -8.24714 1.18213 3.41376
                CHANNELS 3 Zrotation Xrotation Yrotation
                JOINT rMid2
                {
                  OFFSET -3.10165 -0.590103 1.0647
                  CHANNELS 3 Zrotation Xrotation Yrotation
                  End Site
                  {
                    OFFSET -2.48547 -0.328903 0.83742
                  }
                }
              }
              JOINT rRing1
              {
                OFFSET -8.82822 0.546677 1.51678
                CHANNELS 3 Zrotation Xrotation Yrotation
                JOINT rRing2
                {
                  OFFSET -2.60934 -0.819778 -0.0198488
                  CHANNELS 3 Zrotation Xrotation Yrotation
                  End Site
                  {
                    OFFSET -2.33842 -0.294052 0.168128
                  }
                }
              }
              JOINT rPinky1
              {
                OFFSET -8.27202 -0.0477905 -0.4584
                CHANNELS 3 Zrotation Xrotation Yrotation
                JOINT rPinky2
                {
                  OFFSET -1.82734 -0.647385 -0.700984
                  CHANNELS 3 Zrotation Xrotation Yrotation
                  End Site
                  {
                    OFFSET -1.69225 -0.51767 -0.607171
                  }
                }
              }
            }
          }
        }
      }
      JOINT lCollar
      {
        OFFSET 2.68224 19.2634 -4.8768
        CHANNELS 3 Zrotation Xrotation Yrotation
        JOINT lShldr
        {
          OFFSET 8.77824 -1.95073 1.46304
          CHANNELS 3 Zrotation Xrotation Yrotation
          JOINT lForeArm
          {
            OFFSET 28.1742 -1.7115 0.48768
            CHANNELS 3 Zrotation Xrotation Yrotation
            JOINT lHand
            {
              OFFSET 22.5879 0.773209 7.07136
              CHANNELS 3 Zrotation Xrotation Yrotation
              JOINT lThumb1
              {
                OFFSET 1.2192 -0.487915 3.41376
                CHANNELS 3 Zrotation Xrotation Yrotation
                JOINT lThumb2
                {
                  OFFSET 3.37035 -0.52449 3.41376
                  CHANNELS 3 Zrotation Xrotation Yrotation
                  End Site
                  {
                    OFFSET 1.78271 -1.18214 1.43049
                  }
                }
              }
              JOINT lIndex1
              {
                OFFSET 7.75947 0.938293 5.60832
                CHANNELS 3 Zrotation Xrotation Yrotation
                JOINT lIndex2
                {
                  OFFSET 2.54057 -0.884171 1.56538
                  CHANNELS 3 Zrotation Xrotation Yrotation
                  End Site
                  {
                    OFFSET 1.62519 -0.234802 1.16502
                  }
                }
              }
              JOINT lMid1
              {
                OFFSET 8.24714 1.18213 3.41376
                CHANNELS 3 Zrotation Xrotation Yrotation
                JOINT lMid2
                {
                  OFFSET 3.10165 -0.590103 1.0647
                  CHANNELS 3 Zrotation Xrotation Yrotation
                  End Site
                  {
                    OFFSET 2.48547 -0.328903 0.83742
                  }
                }
              }
              JOINT lRing1
              {
                OFFSET 8.82822 0.546677 1.51678
                CHANNELS 3 Zrotation Xrotation Yrotation
                JOINT lRing2
                {
                  OFFSET 2.60934 -0.819778 -0.0198488
                  CHANNELS 3 Zrotation Xrotation Yrotation
                  End Site
                  {
                    OFFSET 2.33842 -0.294052 0.168128
                  }
                }
              }
              JOINT lPinky1
              {
                OFFSET 8.27202 -0.0477905 -0.4584
                CHANNELS 3 Zrotation Xrotation Yrotation
                JOINT lPinky2
                {
                  OFFSET 1.82734 -0.647385 -0.700984
                  CHANNELS 3 Zrotation Xrotation Yrotation
                  End Site
                  {
                    OFFSET 1.69225 -0.51767 -0.607171
                  }
                }
              }
            }
          }
        }
      }
    }
  }
  JOINT rButtock
  {
    OFFSET -8.77824 4.35084 1.2192
    CHANNELS 3 Zrotation Xrotation Yrotation
    JOINT rThigh
    {
      OFFSET 0 -1.70687 -2.19456
      CHANNELS 3 Zrotation Xrotation Yrotation
      JOINT rShin
      {
        OFFSET 0 -36.8199 0.73152
        CHANNELS 3 Zrotation Xrotation Yrotation
        JOINT rFoot
        {
          OFFSET 0.73152 -45.1104 -5.12064
          CHANNELS 3 Zrotation Xrotation Yrotation
          End Site
          {
            OFFSET -1.1221 -3.69964 12.103
          }
        }
      }
    }
  }
  JOINT lButtock
  {
    OFFSET 8.77824 4.35084 1.2192
    CHANNELS 3 Zrotation Xrotation Yrotation
    JOINT lThigh
    {
      OFFSET 0 -1.70687 -2.19456
      CHANNELS 3 Zrotation Xrotation Yrotation
      JOINT lShin
      {
        OFFSET 0 -36.8199 0.73152
        CHANNELS 3 Zrotation Xrotation Yrotation
        JOINT lFoot
        {
          OFFSET -0.73152 -45.1104 -5.12064
          CHANNELS 3 Zrotation Xrotation Yrotation
          End Site
          {
            OFFSET 1.1221 -3.69964 12.103
          }
        }
      }
    }
  }
}
MOTION
Frames:	7
Frame Time:	0.00833333
-76.9784 85.1887 2.04448 0.0 0.0 0.0 0.559352 -0.00286671 0.0159889 0.154366 -0.00442833 0.0267461 4.26327e-16 -1.59028e-15 -2.54693e-16 1.11506e-15 3.18055e-15 -7.67185e-16 -0.0 0.0 0.0 -0.0 0.0 0.0 1.97477e-16 2.32951e-18 4.96962e-17 6.32869e-15 3.23025e-16 -1.98785e-15 8.61235e-14 -1.8487e-14 -7.31528e-14 9.45594e-13 4.44781e-14 -5.1843e-13 2.23785e-12 5.28037e-14 -1.26586e-12 3.86437e-12 8.90555e-14 -2.18107e-12 2.24189e-12 5.24792e-14 -1.26586e-12 7.73091 5.47488 0.417314 2.23618e-12 5.2181e-14 -1.2595e-12 2.90554 0.965183 0.102902 2.24065e-12 5.28767e-14 -1.2595e-12 10.2786 0.731801 0.0259123 2.23156e-12 5.725e-14 -1.24996e-12 2.22167 -0.733487 -0.20892 1.00715e-16 1.16475e-18 -3.47873e-16 2.81968e-15 4.16205e-16 -3.37934e-15 7.77745e-14 2.74323e-14 -1.90833e-14 9.49302e-13 -2.78299e-15 -5.47055e-13 2.23323e-12 5.16297e-14 -1.25314e-12 3.86398e-12 8.90555e-14 -2.16675e-12 2.23116e-12 5.1684e-14 -1.24042e-12 -7.73091 5.47488 -0.417314 2.23394e-12 5.14852e-14 -1.2595e-12 -2.90554 0.965183 -0.102902 2.22989e-12 5.14852e-14 -1.25473e-12 -10.2786 0.731801 -0.0259123 2.24309e-12 5.4467e-14 -1.26904e-12 -2.22167 -0.733487 0.20892 -2.03217e-16 0.0 -3.88251e-19 0.922982 -4.50513 -0.0770312 -0.00206822 2.60854 -0.00962898 -0.50245 1.89677 0.0959404 2.03217e-16 0.0 3.88251e-19 -0.0712574 -2.35215 0.022456 0.00807204 -1.29119 0.0691993 0.494628 3.64342 -0.13052
-74.1367 83.6637 -2.46347 89.8057 88.0219 97.8025 1.09704 -0.410487 0.0669921 0.224929 1.23316 0.0420225 0.826118 2.61868 -0.774445 -0.777163 -1.43654 -1.47291 -0.0 0.0 0.0 -0.0 0.0 0.0 -2.73295e-16 -6.05717e-15 2.59468e-15 23.0013 7.07342 -2.43023 -6.77614 -3.84467 9.62114 0.0172369 2.9219 0.408738 -1.64581e-10 6.79675e-11 1.74987e-11 -2.8415e-10 1.16659e-10 3.27465e-11 -1.64577e-10 6.79683e-11 1.7495e-11 7.73091 5.47488 0.417314 -1.64582e-10 6.7968e-11 1.75023e-11 2.90554 0.965183 0.102902 -1.64576e-10 6.79686e-11 1.75029e-11 10.2786 0.731801 0.0259123 -1.64586e-10 6.79729e-11 1.75101e-11 2.22167 -0.733487 -0.20892 -3.79762e-16 -6.05791e-15 2.22546e-15 -24.4899 8.42516 -1.2191 5.15659 -2.56565 -7.79775 -0.0212261 -3.2328 0.451731 -1.27343e-10 1.83416e-10 -3.38167e-10 -2.18817e-10 3.16184e-10 -5.85423e-10 -1.27346e-10 1.83417e-10 -3.38156e-10 -7.73091 5.47488 -0.417314 -1.27342e-10 1.83417e-10 -3.38176e-10 -2.90554 0.965183 -0.102902 -1.27347e-10 1.83417e-10 -3.38168e-10 -10.2786 0.731801 -0.0259123 -1.27335e-10 1.83419e-10 -3.3818e-10 -2.22167 -0.733487 0.20892 -2.03217e-16 0.0 -3.88251e-19 1.8755 -6.85812 1.35482 0.033924 7.17841 0.118533 -0.876802 -3.33554 -3.79886 2.03217e-16 0.0 3.88251e-19 0.736631 -9.39171 -0.458673 -0.0160316 8.58836 -0.100383 0.751235 -0.0641481 2.5777
-73.7522 83.5873 -2.37446 92.5354 87.9915 100.192 1.6661 -0.844889 0.116947 0.293223 2.54369 0.0570844 1.77774 5.38654 -1.59819 -1.67839 -2.94785 -3.03186 -0.0 0.0 0.0 -0.0 0.0 0.0 -7.71433e-16 -8.08745e-15 5.14666e-15 47.9871 14.4658 -5.14643 -12.5366 -7.53044 19.9053 -0.0102575 6.03671 0.848106 -3.54475e-10 1.371e-10 3.32604e-11 -6.12056e-10 2.35256e-10 6.27251e-11 -3.54471e-10 1.37102e-10 3.32527e-11 7.73091 5.47488 0.417314 -3.54476e-10 1.37102e-10 3.3261e-11 2.90554 0.965183 0.102902 -3.54467e-10 1.37102e-10 3.32622e-11 10.2786 0.731801 0.0259123 -3.54478e-10 1.37107e-10 3.32668e-11 2.22167 -0.733487 -0.20892 -8.87231e-16 -8.08766e-15 4.8081e-15 -49.9737 17.3244 -2.60625 9.85192 -5.11629 -16.085 0.0120921 -6.64626 0.933604 -2.80769e-10 3.69284e-10 -6.93333e-10 -4.82645e-10 6.36492e-10 -1.2004e-09 -2.80773e-10 3.69285e-10 -6.93324e-10 -7.73091 5.47488 -0.417314 -2.80767e-10 3.69286e-10 -6.93346e-10 -2.90554 0.965183 -0.102902 -2.80773e-10 3.69286e-10 -6.93334e-10 -10.2786 0.731801 -0.0259123 -2.80763e-10 3.69288e-10 -6.93344e-10 -2.22167 -0.733487 0.20892 -2.03217e-16 0.0 -3.88251e-19 2.99736 -9.34539 2.87869 0.0488372 11.99 0.256897 -2.04944 -8.77503 -8.00029 2.03217e-16 0.0 3.88251e-19 1.44963 -16.7717 -0.98904 0.0247465 18.9212 -0.291957 1.40802 -3.97512 5.47934
-73.3509 83.4903 -2.21853 90.3573 88.2089 97.6683 2.17459 -1.22572 0.169032 0.364071 3.70833 0.0726984 2.69237 7.85026 -2.34288 -2.55335 -4.29822 -4.42982 -0.0 0.0 0.0 -0.0 0.0 0.0 -1.21484e-15 -1.81762e-14 7.68466e-15 70.908 21.062 -7.75622 -16.5861 -10.2346 29.3083 -0.0746027 8.7639 1.23909 -4.98217e-10 2.03797e-10 5.50279e-11 -8.60179e-10 3.498e-10 1.02602e-10 -4.98214e-10 2.038e-10 5.50168e-11 7.73091 5.47488 0.417314 -4.98219e-10 2.038e-10 5.5026e-11 2.90554 0.965183 0.102902 -4.98208e-10 2.038e-10 5.50277e-11 10.2786 0.731801 0.0259123 -4.9822e-10 2.03804e-10 5.50301e-11 2.22167 -0.733487 -0.20892 -1.34072e-15 -1.81761e-14 7.37212e-15 -72.2987 25.2272 -3.99984 13.4259 -7.12792 -23.5626 0.0911207 -9.69596 1.37265 -3.86496e-10 5.50145e-10 -1.01199e-09 -6.64179e-10 9.48374e-10 -1.75194e-09 -3.865e-10 5.50147e-10 -1.01199e-09 -7.73091 5.47488 -0.417314 -3.86493e-10 5.50148e-10 -1.01201e-09 -2.90554 0.965183 -0.102902 -3.86499e-10 5.50148e-10 -1.012e-09 -10.2786 0.731801 -0.0259123 -3.86491e-10 5.50149e-10 -1.012e-09 -2.22167 -0.733487 0.20892 -2.03217e-16 0.0 -3.88251e-19 4.13975 -11.5385 4.27553 0.0422979 16.3178 0.387667 -3.79257 -13.5359 -11.9043 2.03217e-16 0.0 3.88251e-19 1.9699 -23.4643 -1.5289 0.129205 28.3466 -0.495557 2.31832 -7.40642 8.0613
-73.055 83.399 -2.17205 85.7363 88.1996 92.9319 2.53031 -1.47264 0.226414 0.442483 4.50826 0.0895981 3.36291 9.55911 -2.8713 -3.2073 -5.25699 -5.41492 -0.0 0.0 0.0 -0.0 0.0 0.0 -1.52142e-15 -4.84111e-14 1.01877e-14 87.2821 25.8219 -9.66323 -18.9088 -11.6983 36.0923 -0.137791 10.5239 1.49607 -5.26583e-10 2.64403e-10 9.18099e-11 -9.08847e-10 4.54215e-10 1.67224e-10 -5.2658e-10 2.64406e-10 9.17972e-11 7.73091 5.47488 0.417314 -5.26584e-10 2.64406e-10 9.18067e-11 2.90554 0.965183 0.102902 -5.26573e-10 2.64406e-10 9.18083e-11 10.2786 0.731801 0.0259123 -5.26585e-10 2.6441e-10 9.18099e-11 2.22167 -0.733487 -0.20892 -1.65924e-15 -4.84111e-14 9.88954e-15 -87.5984 30.6861 -5.08027 15.611 -8.33073 -28.8557 0.175038 -11.8385 1.68813 -3.72974e-10 7.1849e-10 -1.23939e-09 -6.3998e-10 1.23919e-09 -2.14488e-09 -3.72979e-10 7.18493e-10 -1.23939e-09 -7.73091 5.47488 -0.417314 -3.72972e-10 7.18493e-10 -1.23941e-09 -2.90554 0.965183 -0.102902 -3.72978e-10 7.18494e-10 -1.23939e-09 -10.2786 0.731801 -0.0259123 -3.72971e-10 7.18494e-10 -1.2394e-09 -2.22167 -0.733487 0.20892 -2.03217e-16 0.0 -3.88251e-19 5.07938 -13.0181 5.30721 0.0266029 19.4364 0.488317 -5.43348 -16.8569 -14.7527 2.03217e-16 0.0 3.88251e-19 2.26898 -28.4437 -2.00234 0.259587 35.5042 -0.680118 3.09767 -9.71848 9.76015
-72.7716 83.2817 -2.09512 81.9666 88.2052 89.0879 2.69999 -1.52112 0.288576 0.52926 4.77131 0.108173 3.62497 10.2178 -3.08671 -3.48485 -5.65541 -5.81851 -0.0 0.0 0.0 -0.0 0.0 0.0 -1.70951e-15 -1.07204e-13 1.25277e-14 93.7902 28.1165 -10.3086 -19.8053 -12.2551 39.0219 -0.157442 10.9112 1.55361 -3.62618e-10 3.08278e-10 1.79983e-10 -6.2489e-10 5.30366e-10 3.18696e-10 -3.62614e-10 3.08281e-10 1.79972e-10 7.73091 5.47488 0.417314 -3.62619e-10 3.08281e-10 1.79981e-10 2.90554 0.965183 0.102902 -3.62609e-10 3.08281e-10 1.79981e-10 10.2786 0.731801 0.0259123 -3.62619e-10 3.08283e-10 1.79984e-10 2.22167 -0.733487 -0.20892 -1.86484e-15 -1.07204e-13 1.22253e-14 -93.5329 32.8012 -5.45526 16.4295 -8.7717 -31.0061 0.215615 -12.7098 1.81841 -1.40559e-10 8.71367e-10 -1.31649e-09 -2.38102e-10 1.50429e-09 -2.27648e-09 -1.40564e-10 8.7137e-10 -1.31648e-09 -7.73091 5.47488 -0.417314 -1.40557e-10 8.71369e-10 -1.3165e-09 -2.90554 0.965183 -0.102902 -1.40564e-10 8.7137e-10 -1.31649e-09 -10.2786 0.731801 -0.0259123 -1.40556e-10 8.7137e-10 -1.31649e-09 -2.22167 -0.733487 0.20892 -2.03217e-16 0.0 -3.88251e-19 5.65294 -13.5316 5.82109 0.0195384 20.8821 0.538916 -6.22681 -18.3699 -15.8975 2.03217e-16 0.0 3.88251e-19 2.41109 -31.0739 -2.34976 0.352165 39.6414 -0.796013 3.32838 -10.5316 10.0614
-72.4527 83.1493 -1.99314 79.0405 88.2893 86.0831 2.73502 -1.42837 0.354264 0.62245 4.65211 0.127917 3.57897 10.1274 -3.07457 -3.47662 -5.65679 -5.80434 -0.0 0.0 0.0 -0.0 0.0 0.0 -1.8095e-15 -1.86378e-13 1.47567e-14 93.0616 28.6843 -9.9387 -19.8931 -12.4151 39.1609 -0.13931 10.3192 1.4671 -6.27402e-11 3.40593e-10 3.03418e-10 -1.05888e-10 5.87e-10 5.29717e-10 -6.27365e-11 3.40596e-10 3.0341e-10 7.73091 5.47488 0.417314 -6.27404e-11 3.40595e-10 3.03418e-10 2.90554 0.965183 0.102902 -6.2735e-11 3.40595e-10 3.03417e-10 10.2786 0.731801 0.0259123 -6.27423e-11 3.40596e-10 3.03423e-10 2.22167 -0.733487 -0.20892 -1.98616e-15 -1.8638e-13 1.44367e-14 -92.9018 32.5366 -5.24302 16.3969 -8.77609 -30.8912 0.212981 -12.6735 1.81284 2.45736e-10 1.0131e-09 -1.2873e-09 4.29278e-10 1.75084e-09 -2.22327e-09 2.45732e-10 1.0131e-09 -1.28729e-09 -7.73091 5.47488 -0.417314 2.45737e-10 1.0131e-09 -1.28731e-09 -2.90554 0.965183 -0.102902 2.4573e-10 1.0131e-09 -1.2873e-09 -10.2786 0.731801 -0.0259123 2.45739e-10 1.0131e-09 -1.2873e-09 -2.22167 -0.733487 0.20892 -2.03217e-16 0.0 -3.88251e-19 5.93489 -13.3586 5.95612 0.0244899 21.1322 0.551186 -6.23456 -18.6502 -15.7522 2.03217e-16 0.0 3.88251e-19 2.48194 -32.0252 -2.57982 0.390707 41.6143 -0.843503 3.10238 -10.2869 9.35074
